<?xml version="1.0" ?><svg id="master-artboard" style="enable-background:new 0 0 1174 1174;" version="1.1" viewBox="0 0 1174 1174" xml:space="preserve" xmlns="http://www.w3.org/2000/svg" xmlns:xlink="http://www.w3.org/1999/xlink"><style type="text/css">
	.st0{fill:#FFFFFF;fill-opacity:0;}
	.st1{fill:none;}
	.st2{fill:#001E50;}
</style><rect class="st0" height="1024" id="ee-background" width="1024" x="75" y="75"/><g transform="matrix(10.188387870788574, 0, 0, 10.188387870788574, -251.519936680809, -252.79260253906244)"><g><path class="st1" d="M-17.638678-17.638678h199.999985v199.999985H-17.638678V-17.638678z"/><path class="st2" d="M82.36132,127.761322c-24.900002,0-45.299999-20.5-45.299999-45.400002    c0-5.599998,1-10.900002,2.900002-15.900002l26.500004,53.299995c0.299995,0.699997,0.799995,1.300003,1.599998,1.300003    c0.799995,0,1.299995-0.599998,1.599998-1.300003L81.86132,92.461311c0.099998-0.300003,0.300003-0.599998,0.599998-0.599998    s0.400002,0.300003,0.599998,0.599998l12.199997,27.300003c0.300003,0.699997,0.800003,1.300003,1.599998,1.300003    c0.800003,0,1.300003-0.599998,1.599998-1.300003l26.5-53.299995c1.900002,4.999992,2.900002,10.299995,2.900002,15.899994    C127.661324,107.261322,107.261322,127.761322,82.36132,127.761322z M82.36132,72.061317    c-0.300003,0-0.400002-0.300003-0.599998-0.599998l-14.199997-32c4.599998-1.700001,9.599998-2.599998,14.799995-2.599998    s10.199997,0.899998,14.800003,2.599998l-14.199997,32C82.761322,71.86132,82.661324,72.061317,82.36132,72.061317z     M67.86132,104.961319c-0.299995,0-0.400002-0.300003-0.599998-0.599998l-23-46.400002    C48.36132,51.66132,53.86132,46.36132,60.561321,42.66132l16.600002,36.899998    c0.199997,0.600006,0.699997,0.800003,1.199997,0.800003h8c0.599998,0,1-0.099998,1.300003-0.800003l16.599998-36.900002    c6.599998,3.700001,12.199997,9,16.299995,15.299999L97.36132,104.36132c-0.099998,0.300003-0.300003,0.599998-0.599998,0.599998    c-0.300003,0-0.400002-0.300003-0.599998-0.599998l-8.699997-19.800003c-0.300003-0.699997-0.699997-0.800003-1.300003-0.800003    h-8c-0.599998,0-1,0.099998-1.300003,0.800003l-8.400002,19.800003C68.36132,104.661324,68.161324,104.961319,67.86132,104.961319    z M82.36132,132.361313c27.699997,0,49.999992-22.299995,49.999992-49.999992s-22.299995-50-49.999992-50s-50,22.299999-50,50    S54.66132,132.361313,82.36132,132.361313z"/></g></g></svg>